<svg version="1.2" xmlns="http://www.w3.org/2000/svg" viewBox="0 0 512 512" width="512" height="512"><style>.a{fill:none;stroke:#848484;stroke-width:2}.b{fill:#090909}.c{fill:#fefefe}</style><path class="a" d="m287.4 44.9c-3.9-7.8-13.2-9.8-20.2-5.2-5.4 3.5-11.1 7.2-15.9 10.8q-47.8 35.8-121.4 90.3-3.2 2.4-5.6 2.4-20.1 0.4-68.6-0.2-4.9-0.1-6.8 0.3c-6.6 1.5-11.9 5.5-14.4 11.7q-1.3 3.4-1.3 12.2 0.1 52.2 0 104.4 0 7.5 1.4 11 3.2 8.1 10.9 11 3.6 1.5 13.2 1.4 41.9-0.1 65.2-0.2 3.9 0 5.4 1.1 41.4 31.1 121.7 90.6c3.6 2.7 9 7 12.1 9.5 3.6 2.9 7.9 3.6 11.9 1.3 10.6-6.1 1-18.3-0.3-25.2q-1.8-9.2 2.2-17.7 2.9-6.4 9.1-17.7 2.4-4.4 2.4-5.9-0.1-176.5 0-279.5 0-4.4-1-6.4z"/><path class="a" d="m444.2 318.2c4.4-0.7 6.9-3.2 9.4-7.4 22.3-37.6 29.3-83.9 22.5-126.5-5.5-34.2-21.2-66.9-44.8-92.3-3.9-4.1-10.1-5.9-14.8-2.3q-5.6 4.2-3.6 10.8c0.6 1.9 2.1 3.3 3.7 5q20.5 21.5 31.7 50.6 4.9 12.7 7.4 25.1 8.3 41.5-3.1 82.4-2.7 9.8-10.8 28.2-1 2.2-6.9 12.1-3.8 6.1 1.6 11.9 0.1 0.1 0.2 0.3 0.1 0.1 0.3 0.2 0.1 0 0.2 0.1 0.2 0.1 0.3 0.2 4.5 2 6.7 1.6z"/><path class="a" d="m388.8 285.5q5.1 5.9 12.2 3.1 0 0 0 0 0 0 0 0 0 0 0 0 0 0 0 0l3.2-2.4q0.2-0.1 0.3-0.3 0.2-0.1 0.4-0.3 0.2-0.2 0.3-0.3 0.2-0.2 0.4-0.4 3.1-3.9 5.5-8.5 17.9-34.1 14.5-72.3c-1.1-12-4.2-24.7-8.3-35.7q-8-21.8-23.5-39.9c-4.3-5-7.4-8.5-13.6-7q-7.2 1.7-8 9.7 0 0.2 0 0.4 0 0.2 0.1 0.4 0 0.2 0.1 0.4 0 0.2 0.1 0.3 1.6 3.7 2.5 4.6c25 25.9 35.5 62.2 30 97.8-0.7 4.9-2.6 11.7-4 15.7q-4.5 13.1-11.1 22.7c-2.7 4-3.5 7.2-1.6 11.3q0 0.1 0.1 0.2 0 0.1 0.1 0.2 0 0.1 0.1 0.2 0.1 0 0.2 0.1z"/><path class="a" d="m334.2 163.5c-3.3 2.8-4.7 8.3-1.6 11.8q3.4 3.8 7.1 8.5 12.2 15.8 10.5 36.4-0.7 8.2-5.6 19c-2.4 5.5-6.2 9.2-10.7 13.7q-3.3 3.3-3 7.9c0.2 4 3.7 7.5 7.6 8.1q6.2 1.1 10.1-3.5 3.2-3.6 7.9-8.9 2.1-2.4 5.9-9.6c1.6-2.8 2.2-5.5 3.3-8.4 2-4.8 2.7-10.8 3.7-16 1-5.8 0.6-13.8-0.5-19.9q-4-22.1-20.2-38.3-7-7-14.5-0.8z"/><path class="a" d="m345 454.3q0 5.9 0 5.9-0.4 7.2 4.2 11.6c2.9 2.8 5.7 3.3 9.8 3.3q15.3 0.1 31.2-0.1 6.7-0.1 10.3-5.5 1.5-2.3 1.5-4 0-7.7 0.1-10.3 0-0.2 0-0.3 0.1-0.1 0.1-0.3 0.1-0.1 0.2-0.1 0.1-0.1 0.3-0.2 6.7-2.6 13.8-7.1 0.1-0.1 0.2-0.1 0.1-0.1 0.2-0.1 0.2 0 0.3 0.1 0.1 0 0.2 0l8.3 4.8q0.1 0.1 0.2 0.1 0.1 0.1 0.2 0.1 0.1 0.1 0.2 0.1 0.2 0 0.3 0 8.3 0.7 12.7-6.5 1.7-2.9 15.8-28.5 2.6-4.7 1-10.6 0-0.1-0.1-0.3 0-0.2-0.1-0.3-0.1-0.2-0.2-0.3-0.1-0.2-0.3-0.3c-1.5-1.7-2.1-2.5-4-3.7q-4.2-2.7-6.6-4-0.2-0.2-0.4-0.3-0.1-0.2-0.3-0.4-0.1-0.2-0.1-0.4-0.1-0.2-0.1-0.5v-14.6q0-0.1 0-0.2 0.1-0.1 0.1-0.2 0.1-0.1 0.1-0.2 0.1-0.1 0.2-0.2c7.6-4.3 14.8-8.3 11.6-18.7q0-0.1-0.1-0.2 0-0.1-0.1-0.2 0-0.1-0.1-0.2 0-0.2-0.1-0.3-5.5-9.3-15.4-27c-2.7-4.9-5.9-7.7-11.7-7.6-3.3 0.1-7.7 3.4-11.2 4.7q0 0.1-0.1 0.1-0.1 0-0.2 0-0.1 0-0.2 0-0.1 0-0.1-0.1l-13.5-6.4q-0.3-0.1-0.5-0.3-0.2-0.1-0.3-0.4-0.2-0.2-0.2-0.5-0.1-0.2-0.1-0.5c0-3.8 0.6-9.7-0.7-13.1-2.1-5.7-7.1-7.3-12.9-7.4q-21.3-0.1-29-0.2-5.5-0.1-7.7 1.1c-8.2 4.1-6.6 13.2-6.7 20.7q0 0.2 0 0.4-0.1 0.1-0.2 0.3-0.1 0.2-0.3 0.3-0.1 0.1-0.3 0.2c-2.6 1-4.8 1.8-7.4 3.4q-2.4 1.5-4.6 2.4-0.2 0.1-0.5 0.2-0.2 0-0.4 0-0.3 0-0.5-0.1-0.2 0-0.5-0.1-1.2-0.6-4.3-2.4c-7.5-4.3-14.1-2.2-18.3 5.4q-7.6 13.7-15.1 26.9-1.1 1.9-1.4 5.2-0.6 6.9 4.8 10.4 4.2 2.7 7.1 4.3 0.1 0.1 0.2 0.3 0.2 0.1 0.3 0.2 0.1 0.2 0.1 0.4 0.1 0.1 0.1 0.3v13.3q0 0.4-0.1 0.7-0.1 0.3-0.3 0.6-0.1 0.3-0.4 0.5-0.2 0.2-0.5 0.4l-7.7 4.4q-0.1 0.1-0.2 0.2-0.1 0.1-0.2 0.2-0.1 0.1-0.2 0.2-0.1 0.1-0.2 0.2-5.6 7.2-0.6 15.7 10 17.6 16.2 27.6 3.3 5.2 9.2 6c3.8 0.5 8.9-2.8 11.8-5q0.2-0.2 0.5-0.3 0.3-0.1 0.6-0.1 0.2 0 0.5 0.1 0.3 0.1 0.5 0.3 6 4.2 11.9 6.5 0.1 0.1 0.2 0.1 0 0.1 0.1 0.2 0 0 0.1 0.1 0 0.1 0 0.2z"/><path class="a" d="m268.4 374.4q0-151-0.2-285.4 0-12-0.3-23.9 0-0.5-0.7-0.7-0.2-0.1-0.4 0.1c-2.2 2.2-4.1 3.1-6.7 5q-8.6 6.1-21.3 15.5-16.4 12.1-98.5 73.1-0.2 0.1-0.3 0.2-0.1 0.2-0.2 0.3 0 0.2-0.1 0.4 0 0.1 0 0.3v119.4q0 0.2 0 0.4 0.1 0.1 0.1 0.3 0.1 0.1 0.2 0.2 0.1 0.1 0.2 0.2l127.5 94.9q0.1 0.1 0.3 0.1 0.1 0 0.2-0.1 0.1 0 0.1-0.1 0.1-0.1 0.1-0.2z"/><path class="a" d="m53.4 162.1q-0.1 0-0.3 0-0.1 0.1-0.2 0.2-0.1 0.1-0.2 0.2 0 0.2 0 0.3v111.7q0 0.2 0 0.3 0.1 0.1 0.2 0.2 0.1 0.1 0.2 0.2 0.2 0 0.3 0.1h66.3q0.1-0.1 0.2-0.1 0.2-0.1 0.3-0.2 0.1-0.1 0.1-0.2 0.1-0.1 0.1-0.3v-111.7q0-0.1-0.1-0.3 0-0.1-0.1-0.2-0.1-0.1-0.3-0.2-0.1 0-0.2 0z"/><path class="a" d="m384.2 320.4h-20.6q-0.1 0-0.2 0-0.1 0.1-0.2 0.2-0.1 0-0.1 0.1-0.1 0.2-0.1 0.3c0.1 6.5-0.2 9.1-1.6 14.3q-0.1 0.2-0.2 0.5-0.1 0.2-0.2 0.4-0.2 0.2-0.3 0.4-0.2 0.2-0.4 0.4c-3.2 2.5-8.2 3.6-10.7 4.8q-7.1 3.3-11.8 8c-5.5 5.4-11.5-0.8-16.6-2.4q-0.1 0-0.2 0 0 0-0.1 0-0.1 0-0.2 0.1 0 0-0.1 0.1l-9.5 16.4q-0.1 0.2-0.1 0.4 0 0.2 0 0.4 0.1 0.3 0.2 0.4 0.1 0.2 0.3 0.3l8.9 6.7q0.4 0.3 0.7 0.7 0.3 0.4 0.5 0.9 0.2 0.5 0.3 1 0 0.6-0.1 1.1-2.2 11.9-0.3 24.6 0.1 0.4 0.7 1.1 0.1 0.1 0.2 0.2 0 0.1 0 0.2 0 0.1 0 0.2 0 0.2-0.1 0.2c-2.8 4.4-7 8.1-11.3 10.8q-0.1 0.1-0.2 0.2 0 0.1 0 0.2-0.1 0.1-0.1 0.2 0.1 0.1 0.1 0.2l9.9 17.1q0.1 0.2 0.2 0.3 0.1 0.1 0.3 0.1 0.1 0 0.3 0 0.1 0 0.2 0l9.6-4.7q0.4-0.2 0.8-0.2 0.4-0.1 0.8-0.1 0.5-0.1 0.9 0 0.4 0.1 0.8 0.3c1.7 0.7 4.9 2.6 6.5 4.1q6.6 6 16.6 9.5c7 2.4 5.3 10.9 5.4 16.5q0 0.1 0 0.2 0 0.1 0.1 0.2 0.1 0.1 0.2 0.1 0.1 0.1 0.2 0.1h20.8q0.1 0 0.2-0.1 0.1 0 0.2-0.1 0.1-0.1 0.1-0.2 0-0.1 0-0.2c-0.5-4.3-1.1-14.5 4-16.5q10.5-4.3 12.7-5.6 3.9-2.3 8.9-6.6 3.5-3 8-1 7 3.2 8.2 4.2 0 0.1 0.1 0.1 0.1 0 0.1 0 0.1 0 0.2 0 0-0.1 0.1-0.2l9.8-17q0.1-0.2 0.2-0.5 0-0.2-0.1-0.4 0-0.3-0.2-0.5-0.1-0.1-0.3-0.3-5.8-3.3-9.9-7.7-0.3-0.2-0.4-0.5-0.2-0.3-0.3-0.6 0-0.3-0.1-0.6 0-0.3 0.1-0.6 2.6-13.5-0.3-26.9-0.1-0.4-0.1-0.7 0-0.4 0.1-0.7 0.1-0.4 0.3-0.7 0.2-0.3 0.4-0.5 4.1-4.2 9-6.6 0.4-0.2 0.6-0.5 0.3-0.3 0.4-0.6 0.2-0.4 0.2-0.8 0-0.3-0.1-0.7-0.5-2-1.5-3.6-3.9-6.2-7.5-12.6-0.1-0.1-0.2-0.2-0.1-0.1-0.3-0.1-0.1-0.1-0.3 0-0.1 0-0.2 0.1-5.4 3-12.5 4.9-0.1 0-0.2 0-0.1 0-0.2 0-0.1 0-0.2-0.1-0.1 0-0.2 0-2.3-1.2-2.8-1.7c-4.7-4.8-10.6-8.6-17.2-10.7q-3.6-1.2-6.1-2.6-0.2-0.1-0.4-0.3-0.1-0.1-0.3-0.3-0.2-0.2-0.3-0.4-0.1-0.2-0.2-0.4c-1.4-4.5-0.9-8.4-1-14.8q0-0.2-0.1-0.3 0-0.1-0.1-0.2-0.1-0.1-0.3-0.2-0.1 0-0.2 0z"/><path class="a" d="m408.2 389.6c0-4.5-0.9-8.9-2.6-13.1-1.8-4.1-4.3-7.9-7.5-11.1-3.1-3.2-6.9-5.7-11-7.4-4.2-1.7-8.6-2.6-13.1-2.6-4.5 0-9 0.9-13.1 2.6-4.1 1.7-7.9 4.2-11.1 7.4-3.2 3.2-5.7 7-7.4 11.1-1.7 4.2-2.6 8.6-2.6 13.1 0 4.5 0.9 8.9 2.6 13.1 1.7 4.1 4.2 7.9 7.4 11.1 3.2 3.1 7 5.7 11.1 7.4 4.1 1.7 8.6 2.6 13.1 2.6 4.5 0 8.9-0.9 13.1-2.6 4.1-1.7 7.9-4.3 11-7.4 3.2-3.2 5.7-7 7.5-11.1 1.7-4.2 2.6-8.6 2.6-13.1z"/><path class="a" d="m390.5 389.2c0-2.2-0.4-4.3-1.3-6.4-0.8-2-2-3.8-3.6-5.4-1.5-1.5-3.4-2.8-5.4-3.6-2-0.8-4.2-1.3-6.4-1.3-2.2 0-4.3 0.5-6.4 1.3-2 0.8-3.8 2.1-5.4 3.6-1.5 1.6-2.7 3.4-3.6 5.4-0.8 2.1-1.3 4.2-1.3 6.4 0 2.2 0.5 4.4 1.3 6.4 0.9 2 2.1 3.9 3.6 5.4 1.6 1.6 3.4 2.8 5.4 3.6 2.1 0.9 4.2 1.3 6.4 1.3 2.2 0 4.4-0.4 6.4-1.3 2-0.8 3.9-2 5.4-3.6 1.6-1.5 2.8-3.4 3.6-5.4 0.9-2 1.3-4.2 1.3-6.4z"/><path class="b" d="m267.2 39.7c7-4.6 16.3-2.6 20.2 5.2q1 2 1 6.4-0.1 103 0 279.4 0 1.6-2.4 6-6.2 11.3-9.1 17.7-4 8.5-2.2 17.7c1.3 6.9 10.9 19.1 0.3 25.2-4 2.3-8.3 1.6-11.9-1.3-3.1-2.5-8.5-6.8-12.1-9.5q-80.3-59.5-121.7-90.6-1.5-1.1-5.4-1.1-23.3 0.1-65.2 0.2-9.6 0.1-13.2-1.3-7.7-3-10.9-11.1-1.4-3.5-1.4-11 0.1-52.2 0-104.4 0-8.8 1.3-12.2c2.5-6.2 7.8-10.2 14.4-11.7q1.9-0.4 6.8-0.3 48.5 0.6 68.6 0.2 2.4 0 5.6-2.3 73.6-54.6 121.4-90.4c4.8-3.6 10.5-7.3 15.9-10.8z"/><path class="c" d="m268.4 374.4q0 0.1-0.1 0.2 0 0.1-0.1 0.1-0.1 0.1-0.2 0.1-0.2 0-0.3-0.1l-127.5-94.9q-0.1-0.1-0.2-0.2-0.1-0.1-0.2-0.2 0-0.2-0.1-0.3 0-0.2 0-0.3v-119.5q0-0.2 0-0.3 0.1-0.2 0.1-0.4 0.1-0.1 0.2-0.3 0.1-0.1 0.3-0.2 82.1-61 98.5-73.1 12.7-9.4 21.3-15.5c2.6-1.9 4.5-2.8 6.7-5q0.2-0.2 0.4-0.1 0.7 0.2 0.7 0.7 0.3 11.9 0.3 23.9 0.2 134.4 0.2 285.4z"/><path class="b" d="m444.2 318.2q-2.2 0.4-6.7-1.6-0.1-0.1-0.3-0.2-0.1-0.1-0.2-0.1-0.2-0.1-0.3-0.2-0.1-0.2-0.2-0.3-5.4-5.8-1.6-11.9 5.9-9.9 6.9-12.1 8.1-18.4 10.8-28.2 11.4-40.9 3.1-82.4-2.5-12.4-7.4-25.1-11.2-29.1-31.7-50.6c-1.6-1.7-3.1-3.1-3.7-5q-2-6.5 3.6-10.8c4.7-3.6 10.9-1.8 14.8 2.3 23.6 25.4 39.3 58.1 44.8 92.3 6.8 42.6-0.2 88.9-22.5 126.5-2.5 4.2-5 6.7-9.4 7.4z"/><path class="b" d="m388.3 284.8c-1.9-4.1-1.1-7.3 1.6-11.3q6.6-9.6 11.1-22.7c1.4-4 3.3-10.8 4-15.7 5.5-35.6-5-71.9-30-97.8q-0.9-0.9-2.5-4.6-0.1-0.1-0.1-0.3-0.1-0.2-0.1-0.4-0.1-0.2-0.1-0.4 0-0.2 0-0.4 0.8-8 8-9.7c6.2-1.5 9.3 2 13.6 7q15.5 18.1 23.5 39.9c4.1 11 7.2 23.7 8.3 35.7q3.4 38.2-14.5 72.3-2.4 4.6-5.5 8.5-0.2 0.2-0.4 0.4-0.1 0.1-0.3 0.3-0.2 0.2-0.4 0.3-0.1 0.2-0.3 0.3l-3.2 2.3q0 0.1 0 0.1 0 0 0 0 0 0 0 0 0 0 0 0-7.1 2.8-12.2-3.1-0.1-0.1-0.2-0.1-0.1-0.1-0.1-0.2-0.1-0.1-0.1-0.2-0.1-0.1-0.1-0.2z"/><path class="b" d="m332.6 175.3c-3.1-3.5-1.7-9 1.6-11.8q7.5-6.2 14.5 0.8 16.2 16.2 20.2 38.3c1.1 6.1 1.5 14.1 0.5 19.9-1 5.2-1.7 11.1-3.7 16-1.1 2.9-1.7 5.6-3.3 8.4q-3.8 7.2-5.9 9.6-4.7 5.3-7.9 8.9-3.9 4.6-10.1 3.5c-3.9-0.6-7.5-4.1-7.6-8.1q-0.3-4.6 3-7.9c4.5-4.5 8.3-8.2 10.7-13.7q4.9-10.8 5.6-19 1.7-20.6-10.5-36.4-3.7-4.7-7.1-8.5z"/><path class="c" d="m53.4 162.1h66.3q0.1 0 0.2 0 0.2 0.1 0.3 0.2 0.1 0.1 0.1 0.2 0.1 0.2 0.1 0.3v111.7q0 0.2-0.1 0.3 0 0.1-0.1 0.2-0.1 0.1-0.3 0.2-0.1 0-0.2 0.1h-66.3q-0.1-0.1-0.3-0.1-0.1-0.1-0.2-0.2-0.1-0.1-0.2-0.2 0-0.1 0-0.3v-111.7q0-0.1 0-0.3 0.1-0.1 0.2-0.2 0.1-0.1 0.2-0.2 0.2 0 0.3 0z"/><path class="b" d="m344.6 453.7q-5.9-2.3-11.9-6.5-0.2-0.2-0.5-0.3-0.3-0.1-0.5-0.1-0.3 0-0.6 0.1-0.3 0.1-0.5 0.3c-2.9 2.2-8 5.5-11.8 5q-5.9-0.8-9.2-6-6.2-10-16.2-27.6-5-8.5 0.6-15.7 0.1-0.1 0.2-0.2 0.1-0.1 0.2-0.2 0.1-0.1 0.2-0.2 0.1-0.1 0.2-0.2l7.7-4.4q0.3-0.2 0.5-0.4 0.3-0.2 0.4-0.5 0.2-0.3 0.3-0.6 0.1-0.3 0.1-0.7v-13.3q0-0.2-0.1-0.3 0-0.2-0.1-0.4-0.1-0.1-0.3-0.2-0.1-0.2-0.2-0.3-2.9-1.6-7.1-4.3-5.4-3.5-4.8-10.4 0.3-3.3 1.4-5.2 7.5-13.2 15.1-26.9c4.2-7.6 10.8-9.7 18.3-5.4q3.1 1.8 4.3 2.4 0.3 0.1 0.5 0.1 0.2 0.1 0.5 0.1 0.2 0 0.4 0 0.3-0.1 0.5-0.2 2.2-0.9 4.6-2.4c2.6-1.6 4.8-2.4 7.4-3.4q0.2-0.1 0.3-0.2 0.2-0.1 0.3-0.3 0.1-0.2 0.2-0.3 0-0.2 0-0.4c0.1-7.5-1.5-16.6 6.7-20.7q2.2-1.2 7.7-1.1 7.7 0.1 28.9 0.2c5.9 0.1 10.9 1.7 13 7.4 1.3 3.4 0.7 9.3 0.7 13.1q0 0.3 0.1 0.5 0 0.3 0.2 0.5 0.1 0.3 0.3 0.4 0.2 0.2 0.5 0.3l13.5 6.4q0 0.1 0.1 0.1 0.1 0 0.2 0 0.1 0 0.2 0 0.1 0 0.1 0c3.5-1.4 7.9-4.7 11.2-4.8 5.8-0.1 9 2.7 11.7 7.6q9.9 17.7 15.4 27 0.1 0.1 0.1 0.3 0.1 0.1 0.1 0.2 0.1 0.1 0.1 0.2 0.1 0.1 0.1 0.2c3.2 10.4-4 14.4-11.6 18.8q-0.1 0-0.2 0.1 0 0.1-0.1 0.2 0 0.1-0.1 0.2 0 0.1 0 0.2v14.6q0 0.3 0.1 0.5 0 0.2 0.1 0.4 0.2 0.2 0.3 0.4 0.2 0.1 0.4 0.3 2.4 1.3 6.6 4c1.9 1.2 2.5 2 4 3.7q0.2 0.1 0.3 0.3 0.1 0.1 0.2 0.3 0.1 0.1 0.1 0.3 0.1 0.2 0.1 0.3 1.6 5.9-1 10.6-14.1 25.6-15.8 28.5-4.4 7.2-12.7 6.5-0.1 0-0.3 0-0.1 0-0.2-0.1-0.1 0-0.2-0.1-0.1 0-0.2-0.1l-8.3-4.8q-0.1 0-0.2 0-0.1-0.1-0.3-0.1-0.1 0-0.2 0.1-0.1 0-0.2 0.1-7.1 4.5-13.8 7.1-0.2 0.1-0.3 0.2-0.1 0-0.2 0.1 0 0.2-0.1 0.3 0 0.1 0 0.3-0.1 2.6-0.1 10.3 0 1.8-1.5 4-3.6 5.4-10.3 5.5-15.9 0.2-31.2 0.1c-4.1 0-6.9-0.5-9.8-3.3q-4.6-4.4-4.2-11.5 0-0.1 0-6 0-0.1 0-0.2-0.1-0.1-0.1-0.1-0.1-0.1-0.1-0.2-0.1 0-0.2-0.1z"/><path class="c" d="m384.9 321.1c0.1 6.4-0.4 10.3 1 14.8q0.1 0.2 0.2 0.4 0.1 0.2 0.3 0.4 0.2 0.2 0.3 0.3 0.2 0.2 0.4 0.3 2.5 1.4 6.1 2.6c6.6 2.1 12.5 5.9 17.2 10.7q0.5 0.5 2.8 1.7 0.1 0 0.2 0 0.1 0.1 0.2 0.1 0.1 0 0.2 0 0.1 0 0.2-0.1 7.1-1.8 12.5-4.9 0.1 0 0.2 0 0.2-0.1 0.3 0 0.2 0 0.3 0.1 0.1 0.1 0.2 0.2 3.6 6.4 7.5 12.6 1 1.6 1.5 3.6 0.1 0.4 0.1 0.7 0 0.4-0.2 0.8-0.1 0.3-0.4 0.6-0.2 0.3-0.6 0.4-4.9 2.5-9 6.7-0.2 0.2-0.4 0.5-0.2 0.3-0.3 0.7-0.1 0.3-0.1 0.7 0 0.3 0.1 0.7 2.9 13.4 0.3 26.9-0.1 0.3-0.1 0.6 0.1 0.3 0.1 0.6 0.1 0.3 0.3 0.6 0.1 0.3 0.4 0.5 4.1 4.4 9.9 7.7 0.2 0.2 0.3 0.3 0.2 0.2 0.2 0.5 0.1 0.2 0.1 0.4-0.1 0.3-0.2 0.5l-9.8 17.1q-0.1 0-0.1 0.1-0.1 0-0.2 0 0 0-0.1 0-0.1 0-0.1-0.1-1.2-1-8.2-4.2-4.5-2-8 1-5 4.3-8.9 6.6-2.2 1.3-12.7 5.6c-5.1 2-4.5 12.2-4 16.5q0 0.1 0 0.2 0 0.1-0.1 0.2-0.1 0.1-0.2 0.1-0.1 0.1-0.2 0.1h-20.8q-0.1 0-0.2-0.1-0.1 0-0.2-0.1-0.1-0.1-0.1-0.2 0-0.1 0-0.2c-0.1-5.6 1.6-14.1-5.4-16.5q-10-3.5-16.6-9.5c-1.6-1.5-4.8-3.4-6.5-4.1q-0.4-0.2-0.8-0.3-0.4-0.1-0.9 0-0.4 0-0.8 0.1-0.4 0-0.8 0.2l-9.6 4.7q-0.1 0-0.2 0-0.2 0-0.3 0-0.2 0-0.3-0.1-0.1-0.1-0.2-0.3l-9.9-17.1q0-0.1-0.1-0.2 0-0.1 0.1-0.2 0-0.1 0-0.2 0.1-0.1 0.2-0.2c4.3-2.7 8.5-6.4 11.3-10.8q0.1 0 0.1-0.2 0-0.1 0-0.2 0-0.1 0-0.2-0.1-0.1-0.2-0.2-0.6-0.7-0.7-1.1-1.9-12.7 0.3-24.6 0.1-0.5 0.1-1.1-0.1-0.5-0.3-1-0.2-0.5-0.5-0.9-0.3-0.4-0.7-0.7l-8.9-6.7q-0.2-0.1-0.3-0.3-0.1-0.1-0.2-0.4 0-0.2 0-0.4 0-0.2 0.2-0.4l9.4-16.4q0.1-0.1 0.1-0.1 0.1-0.1 0.2-0.1 0.1 0 0.1 0 0.1 0 0.2 0c5.1 1.6 11.1 7.8 16.6 2.4q4.7-4.7 11.8-8c2.5-1.2 7.5-2.3 10.7-4.8q0.2-0.2 0.4-0.4 0.1-0.2 0.3-0.4 0.1-0.2 0.2-0.4 0.1-0.3 0.2-0.5c1.4-5.2 1.7-7.8 1.6-14.3q0-0.1 0.1-0.3 0-0.1 0.1-0.1 0.1-0.1 0.2-0.2 0.1 0 0.2 0h20.6q0.1 0 0.2 0 0.2 0.1 0.3 0.2 0.1 0.1 0.1 0.2 0.1 0.1 0.1 0.2z"/><path class="b" d="m408.2 389.6c0 4.5-0.9 8.9-2.6 13.1-1.8 4.1-4.3 7.9-7.5 11.1-3.1 3.1-6.9 5.7-11 7.4-4.2 1.7-8.6 2.6-13.1 2.6-4.5 0-9-0.9-13.1-2.6-4.1-1.7-7.9-4.3-11.1-7.4-3.2-3.2-5.7-7-7.4-11.1-1.7-4.2-2.6-8.6-2.6-13.1 0-4.5 0.9-8.9 2.6-13.1 1.7-4.1 4.2-7.9 7.4-11.1 3.2-3.2 7-5.7 11.1-7.4 4.1-1.7 8.6-2.6 13.1-2.6 4.5 0 8.9 0.9 13.1 2.6 4.1 1.7 7.9 4.2 11 7.4 3.2 3.2 5.7 7 7.5 11.1 1.7 4.2 2.6 8.6 2.6 13.1z"/><path class="c" d="m390.5 389.2c0 2.2-0.4 4.4-1.3 6.4-0.8 2-2 3.9-3.6 5.4-1.5 1.6-3.4 2.8-5.4 3.6-2 0.9-4.2 1.3-6.4 1.3-2.2 0-4.3-0.4-6.4-1.3-2-0.8-3.8-2-5.4-3.6-1.5-1.5-2.7-3.4-3.6-5.4-0.8-2-1.3-4.2-1.3-6.4 0-2.2 0.5-4.3 1.3-6.4 0.9-2 2.1-3.8 3.6-5.4 1.6-1.5 3.4-2.8 5.4-3.6 2.1-0.8 4.2-1.3 6.4-1.3 2.2 0 4.4 0.5 6.4 1.3 2 0.8 3.9 2.1 5.4 3.6 1.6 1.6 2.8 3.4 3.6 5.4 0.9 2.1 1.3 4.2 1.3 6.4z"/></svg>